Coordinates
version=1
nRows=30
nColumns=34
inDegrees=no

Units are S.I. units (second, meters, Newtons, ...)
If the header above contains a line with 'inDegrees', this indicates whether rotational values are in degrees (yes) or radians (no).

endheader
time	pelvis_tilt	pelvis_list	pelvis_rotation	pelvis_tx	pelvis_ty	pelvis_tz	hip_flexion_r	hip_adduction_r	hip_rotation_r	knee_angle_r	ankle_angle_r	subtalar_angle_r	mtp_angle_r	hip_flexion_l	hip_adduction_l	hip_rotation_l	knee_angle_l	ankle_angle_l	subtalar_angle_l	mtp_angle_l	lumbar_extension	lumbar_bending	lumbar_rotation	arm_flex_r	arm_add_r	arm_rot_r	elbow_flex_r	pro_sup_r	arm_flex_l	arm_add_l	arm_rot_l	elbow_flex_l	pro_sup_l
0	0.22496	0.0116678	0.0868344	-0.181958	1.01724	-0.227562	0.214249	0.0122878	-0.250464	0.0217599	0.0263952	0.143601	-0.00591879	-0.512827	-0.0607743	-0.400148	0.24232	0.457853	0.570504	-0.0152805	-0.506042	-0.0279846	-0.153857	-0.229964	-0.0897512	-0.190542	0.478947	2.09319	0.400932	-0.492161	-0.162474	0.86196	1.9113
0.01	0.224927	0.0014165	0.0979827	-0.163593	1.02349	-0.227267	0.19154	0.0289251	-0.226254	0.00302021	-0.0243771	0.105573	-0.00594577	-0.52068	-0.081896	-0.392198	0.257352	0.441707	0.564301	-0.0152408	-0.498865	-0.01399	-0.157219	-0.233334	-0.0867254	-0.191671	0.467918	2.09276	0.388779	-0.489785	-0.170282	0.869972	1.91311
0.02	0.224389	-0.00879765	0.107792	-0.145532	1.02903	-0.226886	0.171767	0.0445262	-0.207419	-0.0110521	-0.0685982	0.0732101	-0.00597275	-0.523699	-0.102853	-0.38322	0.27866	0.419325	0.5509	-0.0152012	-0.491515	-0.000895341	-0.15859	-0.236429	-0.08408	-0.192998	0.45871	2.09294	0.376145	-0.486389	-0.177227	0.878041	1.91429
0.03	0.223346	-0.0190076	0.116261	-0.127792	1.03391	-0.226408	0.15491	0.059141	-0.19387	-0.0205288	-0.106256	0.0464269	-0.00599973	-0.521856	-0.123679	-0.373243	0.306274	0.390686	0.530315	-0.0151616	-0.484003	0.0113255	-0.157952	-0.239236	-0.0818252	-0.194499	0.451326	2.09374	0.363044	-0.481975	-0.183306	0.886161	1.91483
0.04	0.221792	-0.0293019	0.123387	-0.110395	1.03819	-0.225822	0.140906	0.0729058	-0.185344	-0.02561	-0.137316	0.0249935	-0.00602671	-0.515082	-0.144464	-0.362336	0.340235	0.355759	0.502631	-0.0151219	-0.476354	0.0227452	-0.155273	-0.241706	-0.0799916	-0.196102	0.445772	2.09518	0.349516	-0.476553	-0.188514	0.894308	1.91474
0.05	0.219711	-0.0398101	0.129171	-0.0933699	1.04193	-0.225114	0.129649	0.0860295	-0.181415	-0.0266002	-0.161696	0.00862383	-0.00605369	-0.503286	-0.165323	-0.350604	0.380528	0.314592	0.4681	-0.0150822	-0.468616	0.0334749	-0.150516	-0.243752	-0.078637	-0.197667	0.442044	2.09724	0.335645	-0.470146	-0.192843	0.902427	1.91404
0.06	0.217087	-0.0506624	0.133632	-0.0767451	1.04517	-0.224273	0.120976	0.0987555	-0.181549	-0.0238648	-0.179273	-0.00292333	-0.00608068	-0.486409	-0.186358	-0.338161	0.426975	0.267446	0.427264	-0.0150426	-0.460852	0.0436477	-0.143685	-0.245243	-0.0778446	-0.198982	0.440112	2.09986	0.321554	-0.462797	-0.196291	0.910428	1.91277
0.07	0.213931	-0.0619475	0.136826	-0.0605467	1.04798	-0.223295	0.114643	0.111315	-0.185152	-0.0178216	-0.189974	-0.00981323	-0.00610767	-0.464482	-0.207603	-0.32508	0.479145	0.214978	0.381039	-0.0150029	-0.453149	0.0533905	-0.134858	-0.246009	-0.0777148	-0.199782	0.439899	2.10297	0.307393	-0.454565	-0.19888	0.918185	1.91103
0.08	0.210288	-0.0736793	0.138877	-0.0447935	1.0504	-0.222191	0.110295	0.123879	-0.191587	-0.0089802	-0.193895	-0.0121935	-0.00613466	-0.437686	-0.228973	-0.311351	0.5363	0.1584	0.330761	-0.0149632	-0.445616	0.062792	-0.124229	-0.245858	-0.0783488	-0.199773	0.441275	2.10639	0.293312	-0.445534	-0.200662	0.925546	1.90896
0.09	0.206249	-0.0857732	0.139986	-0.0294934	1.05251	-0.220982	0.107447	0.136525	-0.200184	0.00199494	-0.191431	-0.0103207	-0.00616165	-0.406372	-0.250231	-0.296832	0.597401	0.0995714	0.278122	-0.0149235	-0.438382	0.0718774	-0.112125	-0.244594	-0.0798272	-0.19869	0.44405	2.10993	0.279436	-0.435801	-0.201725	0.932348	1.90675
0.1	0.201952	-0.098032	0.140432	-0.014641	1.05434	-0.219708	0.105496	0.149218	-0.210236	0.0142539	-0.183349	-0.00466948	-0.00618864	-0.371057	-0.270976	-0.281248	0.661165	0.0409804	0.225069	-0.0148838	-0.431594	0.0805868	-0.0989933	-0.242036	-0.082189	-0.196347	0.447991	2.11341	0.265853	-0.425482	-0.202183	0.938419	1.90459
0.11	0.197571	-0.110148	0.140538	-0.000218198	1.05598	-0.218411	0.10376	0.161802	-0.221037	0.0268215	-0.17074	0.00406317	-0.00621563	-0.332401	-0.290661	-0.264255	0.726154	-0.0144084	0.173683	-0.0148441	-0.425409	0.0887628	-0.0853593	-0.238043	-0.0854141	-0.192694	0.452838	2.1167	0.252609	-0.414701	-0.20216	0.943594	1.90262
0.12	0.193306	-0.121729	0.140627	0.013805	1.05746	-0.217135	0.101536	0.174027	-0.231928	0.0387114	-0.154906	0.0150302	-0.00624263	-0.291175	-0.308639	-0.245547	0.790879	-0.0634507	0.126041	-0.0148044	-0.419991	0.0961524	-0.071756	-0.232525	-0.089417	-0.18784	0.458337	2.11975	0.239717	-0.40359	-0.20177	0.94771	1.90094
0.13	0.189365	-0.13235	0.140975	0.0274661	1.05886	-0.215915	0.0981736	0.185572	-0.242333	0.0490517	-0.137195	0.0273331	-0.00626963	-0.248208	-0.324242	-0.224968	0.853898	-0.103228	0.0840308	-0.0147646	-0.415502	0.102426	-0.058652	-0.225457	-0.0940511	-0.182061	0.464268	2.12258	0.227169	-0.392275	-0.201106	0.950611	1.89956
0.14	0.185936	-0.141597	0.14176	0.0408053	1.06022	-0.214773	0.0931448	0.196097	-0.251761	0.0571911	-0.118848	0.0401051	-0.00629662	-0.204339	-0.336862	-0.202599	0.913896	-0.131486	0.0491605	-0.0147249	-0.412086	0.107214	-0.0463893	-0.216877	-0.0991251	-0.175766	0.470467	2.12531	0.214951	-0.380873	-0.200235	0.952146	1.89842
0.15	0.18317	-0.149118	0.143034	0.0538625	1.06158	-0.213712	0.0861011	0.205288	-0.259784	0.0627632	-0.100887	0.0525588	-0.00632362	-0.160364	-0.346036	-0.178807	0.969736	-0.147004	0.0223779	-0.0146852	-0.409845	0.110147	-0.0351421	-0.206885	-0.104428	-0.169445	0.476839	2.12805	0.20305	-0.369484	-0.19921	0.952174	1.89739
0.16	0.181145	-0.154653	0.144702	0.066673	1.06299	-0.212719	0.0769011	0.212895	-0.266006	0.0657021	-0.0840487	0.0640003	-0.00635062	-0.117	-0.351495	-0.154232	1.02048	-0.149798	0.00395308	-0.0146454	-0.408825	0.110894	-0.0249042	-0.19563	-0.109756	-0.163602	0.483363	2.13094	0.191456	-0.358183	-0.198077	0.950567	1.89635
0.17	0.179843	-0.158068	0.146538	0.0792694	1.06446	-0.211768	0.0656023	0.21876	-0.270038	0.0662118	-0.0687779	0.0738257	-0.00637762	-0.074861	-0.353197	-0.129725	1.06541	-0.141098	-0.00654666	-0.0146056	-0.409011	0.109197	-0.0155046	-0.183297	-0.114941	-0.158687	0.49009	2.13403	0.180154	-0.347023	-0.196897	0.947219	1.89515
0.18	0.179148	-0.159339	0.14822	0.0916809	1.06599	-0.210822	0.0524309	0.222831	-0.271498	0.0646992	-0.0552569	0.081521	-0.00640462	-0.0344538	-0.351318	-0.10625	1.10398	-0.1231	-0.0101794	-0.0145659	-0.410323	0.104895	-0.00664338	-0.17009	-0.119867	-0.155037	0.497125	2.13731	0.169124	-0.33603	-0.195757	0.942057	1.8937
0.19	0.178936	-0.158561	0.149356	0.103933	1.06759	-0.20984	0.0377456	0.225149	-0.270044	0.0616848	-0.043457	0.0866869	-0.00643161	0.00384349	-0.346227	-0.0847732	1.13586	-0.0985484	-0.00846304	-0.014526	-0.412605	0.0979294	0.00204851	-0.156224	-0.124487	-0.152843	0.504622	2.14066	0.158331	-0.325214	-0.194773	0.935041	1.89194
0.2	0.179052	-0.155927	0.149553	0.116049	1.06923	-0.208784	0.0219693	0.225834	-0.265444	0.0577248	-0.0331945	0.0890892	-0.0064586	0.0397665	-0.338434	-0.0661437	1.16087	-0.0702724	-0.00315687	-0.0144862	-0.415654	0.088347	0.0109471	-0.141909	-0.128814	-0.152136	0.512763	2.14388	0.147724	-0.314571	-0.194091	0.926173	1.88984
0.21	0.179332	-0.151702	0.148476	0.128054	1.07088	-0.207625	0.00553321	0.225066	-0.257648	0.0533444	-0.0241798	0.0887159	-0.0064856	0.0731556	-0.328539	-0.0510019	1.17898	-0.0407676	0.00396692	-0.0144464	-0.419242	0.0762991	0.0203778	-0.12735	-0.132924	-0.152803	0.521748	2.14667	0.137238	-0.304092	-0.193867	0.915491	1.8874
0.22	0.179626	-0.146197	0.145894	0.139971	1.07253	-0.206342	-0.0111666	0.223059	-0.246849	0.0489919	-0.0160573	0.0858201	-0.00651259	0.103944	-0.317176	-0.0397218	1.19027	-0.0119273	0.0113188	-0.0144065	-0.423139	0.0620285	0.03057	-0.11274	-0.136934	-0.154622	0.53178	2.14873	0.126805	-0.293772	-0.194247	0.90306	1.88462
0.23	0.17982	-0.139737	0.141717	0.151819	1.07414	-0.20493	-0.0277993	0.220042	-0.233507	0.0450153	-0.008437	0.0809258	-0.00653958	0.132143	-0.304959	-0.032394	1.19491	0.0150502	0.0176278	-0.0143665	-0.427137	0.045853	0.0416321	-0.0982585	-0.140986	-0.157297	0.543055	2.14971	0.116363	-0.283615	-0.195339	0.88896	1.8815
0.24	0.179847	-0.132639	0.135995	0.163614	1.07568	-0.203395	-0.044115	0.216239	-0.218322	0.0416564	-0.000921234	0.074789	-0.00656658	0.15782	-0.292445	-0.0288528	1.19312	0.0395891	0.022007	-0.0143266	-0.43106	0.0281417	0.0535485	-0.0840685	-0.14523	-0.16051	0.555749	2.14927	0.10587	-0.27364	-0.197188	0.873274	1.87803
0.25	0.179696	-0.125195	0.128909	0.175367	1.07713	-0.201755	-0.0599521	0.211861	-0.202162	0.039058	0.00686953	0.0683161	-0.00659357	0.18107	-0.280105	-0.0287382	1.18512	0.0615542	0.0239583	-0.0142866	-0.434786	0.00928594	0.0661972	-0.0703096	-0.149805	-0.163956	0.570001	2.14713	0.0953157	-0.263884	-0.199771	0.856073	1.87422
0.26	0.179399	-0.117666	0.120737	0.187085	1.07845	-0.200033	-0.0752386	0.207098	-0.18596	0.0372781	0.0152711	0.0624588	-0.00662057	0.201987	-0.268315	-0.0315813	1.17112	0.0810282	0.0233334	-0.0142467	-0.438252	-0.0103307	0.0793831	-0.0570937	-0.154831	-0.167368	0.585901	2.14304	0.0847247	-0.254399	-0.202993	0.837406	1.87008
0.27	0.179021	-0.11027	0.111804	0.198772	1.07963	-0.198256	-0.0899864	0.202118	-0.1706	0.0363052	0.024552	0.0581047	-0.00664757	0.220643	-0.257356	-0.0368965	1.15131	0.0981137	0.020276	-0.0142067	-0.441453	-0.0303542	0.0928778	-0.0444994	-0.160401	-0.170538	0.603472	2.13685	0.0741563	-0.245248	-0.206707	0.817297	1.86566
0.28	0.178648	-0.103186	0.10244	0.210433	1.08065	-0.196448	-0.104276	0.197074	-0.156818	0.0360739	0.0348962	0.0559868	-0.00667456	0.237073	-0.247435	-0.0442644	1.12587	0.112804	0.015165	-0.0141666	-0.444432	-0.050476	0.106458	-0.0325694	-0.166578	-0.173313	0.622669	2.12852	0.0636952	-0.2365	-0.210739	0.795751	1.86103
0.29	0.178374	-0.096553	0.0929365	0.222071	1.08152	-0.19463	-0.118234	0.192109	-0.145141	0.0364805	0.0463947	0.0566236	-0.00670156	0.251285	-0.238703	-0.0533945	1.09498	0.124946	0.00857474	-0.0141266	-0.447257	-0.0704397	0.119933	-0.021311	-0.173396	-0.175595	0.64337	2.11812	0.0534366	-0.22822	-0.214913	0.772767	1.8563
